<svg width="345" height="46" viewBox="0 0 345 46" fill="none" xmlns="http://www.w3.org/2000/svg">
<path d="M17.3118 17.2495C20.1041 17.2495 22.6171 17.5109 24.8508 18.295C26.8054 19.079 28.4807 20.1245 29.8769 21.1699C31.273 22.4768 32.1106 23.7836 32.6691 25.6131C33.2275 27.1813 33.5067 29.0109 33.5067 30.8404C33.5067 32.4086 33.2275 34.2381 32.6691 36.0677C32.1106 37.8972 30.9937 39.4654 29.5976 40.7722C28.2015 42.079 26.5262 43.3859 24.5716 44.1699C22.6171 44.954 20.1041 45.4768 17.3118 45.4768C11.7274 45.4768 7.53901 43.9086 4.46756 40.5109C1.39611 37.1131 0 32.6699 0 26.6586C0 22.4768 0.558459 18.8177 1.95457 15.4199C3.35069 12.2836 5.30524 9.40859 7.81825 7.31768C10.3313 5.22677 13.4027 3.39722 17.0326 2.35176C20.6625 1.30631 24.8508 0.522217 29.3184 0.522217C29.3184 1.82904 29.5976 3.13585 29.5976 4.44267C29.5976 5.74949 29.8769 7.05631 29.8769 8.36313C27.6431 8.36313 25.4093 8.62449 23.4547 8.88586C21.5002 9.14722 19.5456 9.66995 17.8703 10.454C16.1949 11.2381 14.7988 12.2836 13.6819 13.329C12.565 14.3745 11.4481 15.9427 10.8897 17.7722C12.0066 17.2495 12.8443 16.9881 13.9611 16.9881C15.6365 17.2495 16.4742 17.2495 17.3118 17.2495ZM16.1949 24.5677C15.078 24.5677 14.2404 24.5677 13.1235 24.829C12.0066 25.0904 11.1689 25.3518 10.6105 25.6131C10.6105 25.8745 10.6105 26.1359 10.6105 26.3972C10.6105 26.6586 10.6105 26.9199 10.6105 27.1813C10.6105 28.7495 10.6105 30.0563 10.8897 31.3631C11.1689 32.67 11.4481 33.9768 12.0066 34.7609C12.565 35.8063 13.1235 36.5904 14.2404 37.1131C15.078 37.6359 16.1949 37.8972 17.591 37.8972C18.7079 37.8972 19.5456 37.6359 20.3833 37.1131C21.2209 36.5904 21.7794 36.0677 22.3378 35.5449C22.8963 35.0222 23.1755 34.2381 23.4547 33.1927C23.7339 32.4086 23.7339 31.6245 23.7339 30.8404C23.7339 28.7495 23.1755 27.1813 22.0586 25.8745C20.6625 25.0904 18.7079 24.5677 16.1949 24.5677Z" fill="#FAB512"/>
<path d="M52.2164 37.375C53.6125 37.375 55.0086 37.375 55.8463 37.1136C56.684 36.8523 57.5216 36.5909 58.0801 36.0682C58.6385 35.5455 59.197 35.2841 59.197 34.7614C59.4762 34.2386 59.4762 33.7159 59.4762 32.9318C59.4762 31.625 58.6385 30.3182 57.2424 29.2727C55.8463 28.2273 53.3333 27.1818 49.9826 26.1364C48.5865 25.6136 46.9112 25.0909 45.5151 24.3068C44.119 23.5227 42.7228 22.7386 41.3267 21.9545C39.9306 21.1705 39.0929 19.8636 38.2553 18.2955C37.4176 16.9886 37.1384 15.1591 37.1384 13.0682C37.1384 10.9773 37.4176 9.14772 38.2553 7.57954C39.0929 6.01136 40.2098 4.70454 41.6059 3.39773C43.0021 2.35227 44.9566 1.30682 46.9112 0.784089C49.145 0.261362 51.3787 0 54.171 0C57.2424 0 60.0347 0.261358 62.2684 1.04545C64.5022 1.56818 66.4568 2.35226 67.8529 3.13636L64.7814 10.9773C63.3853 10.4545 61.9892 9.67045 60.3139 9.40909C58.6385 9.14772 56.684 8.625 54.4502 8.625C51.9372 8.625 50.2618 8.88636 49.1449 9.67045C48.0281 10.1932 47.4696 11.2386 47.4696 12.5455C47.4696 13.3295 47.7489 14.1136 48.0281 14.6364C48.3073 15.1591 48.8657 15.6818 49.7034 16.2045C50.5411 16.7273 51.3787 16.9886 52.2164 17.5114C53.0541 17.7727 54.171 18.2955 55.2879 18.5568C57.8009 19.3409 59.7554 20.125 61.71 21.1705C63.3853 21.9545 65.0607 23 66.1776 24.0454C67.2944 25.0909 68.1321 26.3977 68.9698 27.9659C69.8075 29.5341 69.8074 31.1023 69.8074 33.1932C69.8074 37.375 68.4113 40.5114 65.3399 42.6023C62.2684 44.6932 57.8009 46 51.658 46C49.7034 46 47.7488 46 46.0735 45.7386C44.3982 45.4773 43.0021 45.2159 41.6059 44.9545C40.2098 44.6932 39.0929 44.1705 38.2553 43.9091C37.4176 43.6477 36.5799 43.125 36.0215 42.8636L39.0929 35.0227C40.489 35.8068 42.1644 36.3295 44.119 36.8523C46.9112 37.1136 49.4242 37.375 52.2164 37.375Z" fill="#FAB512"/>
<path d="M125.927 36.5906V44.9542H94.6543V1.30652H105.265V36.5906H125.927Z" fill="#FAB512"/>
<path d="M168.371 44.9542C167.813 43.3861 167.255 41.8179 166.696 40.2497C166.138 38.6815 165.579 37.1133 165.021 35.5452H146.871C146.313 37.1133 145.754 38.6815 145.196 40.2497C144.637 41.8179 144.079 43.3861 143.521 44.9542H132.631C134.306 40.2497 135.982 35.8065 137.657 31.8861C139.332 27.9656 140.728 24.0452 142.404 20.6474C143.8 17.2497 145.475 13.852 146.871 10.7156C148.267 7.57924 149.943 4.44288 151.339 1.30652H161.391C162.787 4.44288 164.462 7.31788 165.858 10.7156C167.254 13.852 168.93 17.2497 170.326 20.6474C171.722 24.0452 173.397 27.9656 175.073 31.8861C176.748 35.8065 178.423 40.2497 180.099 44.9542H168.371ZM155.806 11.2383C155.527 11.7611 155.248 12.8065 154.689 13.852C154.131 14.8974 153.852 16.2042 153.014 17.5111C152.456 18.8179 151.897 20.3861 151.06 22.2156C150.222 24.0452 149.663 25.6133 148.826 27.7042H162.228C161.391 25.8747 160.832 24.0452 160.274 22.2156C159.715 20.3861 158.878 18.8179 158.319 17.5111C157.761 16.2042 157.202 14.8974 156.644 13.852C156.644 12.8065 156.086 11.7611 155.806 11.2383Z" fill="#FAB512"/>
<path d="M201.318 1.30652C202.156 2.61334 202.994 4.44288 204.111 6.53379C205.227 8.6247 206.344 10.7156 207.461 13.0679C208.578 15.4202 209.695 17.7724 210.812 20.3861C211.929 22.7383 213.046 25.0906 213.883 27.4429C215 25.352 215.838 22.9997 216.955 20.3861C218.072 18.0338 219.189 15.4202 220.306 13.0679C221.422 10.7156 222.539 8.36334 223.656 6.53379C224.773 4.44288 225.611 2.8747 226.448 1.30652H235.942C236.5 4.18152 236.78 7.31787 237.059 10.977C237.338 14.6361 237.897 18.2952 238.176 22.2156C238.455 26.1361 238.734 30.0565 239.013 33.977C239.293 37.8974 239.572 41.5565 239.572 44.9542H229.241C229.241 40.7724 228.961 36.0679 228.682 31.102C228.403 26.1361 228.124 21.1702 227.565 15.9429C226.728 17.7724 225.89 19.602 224.773 21.6929C223.656 23.7838 222.819 25.8747 221.702 28.227C220.585 30.5792 219.747 32.4088 218.909 34.2383C218.072 36.0679 217.234 37.8974 216.676 39.2043H209.416C208.857 37.8974 208.02 36.0679 207.182 34.2383C206.344 32.4088 205.227 30.3179 204.39 28.227C203.552 26.1361 202.435 24.0452 201.318 21.6929C200.201 19.3406 199.364 17.5111 198.526 15.9429C197.968 20.9088 197.688 26.1361 197.409 31.102C197.13 36.0679 197.13 40.7724 196.851 44.9542H186.52C186.799 41.5565 186.799 37.8974 187.078 33.977C187.357 30.0565 187.636 26.1361 187.916 22.2156C188.195 18.2952 188.474 14.6361 189.033 10.977C189.312 7.31787 189.87 4.18152 190.149 1.30652H201.318Z" fill="#FAB512"/>
<path d="M266.658 45.4771C264.145 45.4771 261.632 45.4771 259.119 45.2158C256.606 44.9544 253.814 44.693 251.301 44.1703V2.09075C253.535 1.82938 255.768 1.30666 258.281 1.30666C260.794 1.04529 263.307 1.04529 265.541 1.04529C268.613 1.04529 271.126 1.30665 273.639 1.56802C276.152 2.09074 278.385 2.61347 280.061 3.65893C281.736 4.70438 283.132 6.0112 284.249 7.57938C285.366 9.14756 285.645 10.9771 285.645 13.3294C285.645 16.7271 283.97 19.6021 280.34 21.693C283.411 22.7385 285.366 24.0453 286.483 25.8748C287.6 27.7044 288.158 29.7953 288.158 31.8862C288.158 36.5907 286.483 39.9885 282.853 42.3408C278.944 44.4317 273.639 45.4771 266.658 45.4771ZM261.353 18.5567H266.379C269.729 18.5567 271.963 18.2953 273.359 17.5112C274.755 16.7271 275.314 15.4203 275.314 13.8521C275.314 12.0226 274.476 10.9771 273.08 10.193C271.684 9.40893 269.45 9.14757 266.658 9.14757C265.82 9.14757 264.703 9.14757 263.866 9.14757C262.749 9.14757 261.911 9.14756 261.074 9.40893V18.5567H261.353ZM261.353 25.8748V37.1135C262.19 37.1135 263.028 37.3748 263.866 37.3748C264.703 37.3748 265.82 37.3748 266.937 37.3748C270.009 37.3748 272.522 36.8521 274.476 36.068C276.431 35.2839 277.268 33.7158 277.268 31.3635C277.268 29.2726 276.431 27.9657 274.755 27.1817C273.08 26.3976 270.846 25.8748 267.775 25.8748H261.353Z" fill="#FAB512"/>
<path d="M344.001 23C344.001 26.6591 343.443 30.0568 342.326 32.9318C341.209 35.8068 339.534 38.1591 337.579 39.9886C335.625 41.8182 333.112 43.3864 330.32 44.1705C327.527 45.2159 324.456 45.7386 321.105 45.7386C318.034 45.7386 314.962 45.2159 312.17 44.1705C309.378 43.125 306.865 41.8182 304.91 39.9886C302.676 38.1591 301.28 35.8068 299.884 32.9318C298.488 30.0568 297.93 26.9205 297.93 23C297.93 19.3409 298.488 15.9432 299.884 13.0682C301.001 10.1932 302.956 7.84091 304.91 6.01136C307.144 4.18182 309.378 2.61363 312.17 1.56818C314.962 0.522723 318.034 0 321.105 0C324.177 0 327.248 0.522723 330.04 1.56818C332.833 2.61363 335.346 3.92045 337.3 6.01136C339.534 7.84091 340.93 10.1932 342.326 13.0682C343.443 16.2045 344.001 19.3409 344.001 23ZM308.54 23C308.54 25.0909 308.819 27.1818 309.378 28.75C309.936 30.5796 310.774 31.8864 311.891 33.1932C313.008 34.5 314.125 35.2841 315.8 36.0682C317.196 36.8523 319.151 37.1136 321.105 37.1136C323.06 37.1136 324.735 36.8523 326.41 36.0682C328.086 35.2841 329.203 34.5 330.32 33.1932C331.436 31.8864 332.274 30.5796 332.833 28.75C333.391 26.9205 333.67 25.0909 333.67 23C333.67 20.9091 333.391 18.8182 332.833 17.25C332.274 15.4205 331.436 14.1136 330.32 12.8068C329.203 11.5 328.086 10.7159 326.41 9.93182C324.735 9.14773 323.06 8.88636 321.105 8.88636C319.151 8.88636 317.475 9.14773 315.8 9.93182C314.404 10.7159 313.008 11.5 311.891 12.8068C310.774 14.1136 309.936 15.4205 309.378 17.25C308.819 19.0795 308.54 20.9091 308.54 23Z" fill="#FAB512"/>
<path d="M80.6962 9.66965C83.0093 9.66965 84.8845 7.9144 84.8845 5.74919C84.8845 3.58398 83.0093 1.82874 80.6962 1.82874C78.383 1.82874 76.5078 3.58398 76.5078 5.74919C76.5078 7.9144 78.383 9.66965 80.6962 9.66965Z" fill="white"/>
</svg>
